# xmcd
#
# Track frame offsets: 
#        150
#        17652
#        29778
#        49518
#        63216
#        76677
#        97009
#        110984
#
# Disc length: 1649 seconds
#
# Revision: 0
# Processed by: cddbd v1.5.2PL0 Copyright (c) Steve Scherf et al.
# Submitted via: ExactAudioCopy v1.3
#
DISCID=62066f08
DTITLE=Greg Miller and Tom JJ - Traveller
DYEAR=2020
DGENRE=Blues
TTITLE0=Traveller
TTITLE1=Baby What You Want Me To Do
TTITLE2=Got My Eyes On You
TTITLE3=Shame Shame Shame
TTITLE4=Dealing With the Devil
TTITLE5=Black Dog
TTITLE6=The Things That I Used To Do
TTITLE7=Act Like You Love Me
EXTD=
EXTT0=
EXTT1=
EXTT2=
EXTT3=
EXTT4=
EXTT5=
EXTT6=
EXTT7=
PLAYORDER=
